<?xml version="1.0" ?><svg  height="48px" version="1.1" viewBox="0 0 48 48" width="48px" xmlns="http://www.w3.org/2000/svg" xmlns:xlink="http://www.w3.org/1999/xlink"><title/><desc/><g fill="none" fill-rule="evenodd" id="Page-1" stroke="none" stroke-width="1"><g id="Artboard-Copy" transform="translate(-47.000000, -189.000000)"><path d="M80.5742,227.25 C81.6812,228.867 84.2812,230 87.3112,230 C87.8942,230 88.9992,226.507 88.9992,226.507 C86.9222,226.205 85.1902,225.356 84.2192,224.224 C87.1892,221.013 88.9992,216.718 88.9992,212 C88.9992,202.058 80.9412,194 71.0002,194 C61.0582,194 53.0012,202.058 53.0012,212 C53.0012,221.94 61.0582,230 71.0002,230 C74.5172,230 77.8022,228.993 80.5742,227.25 M68.7502,212 C68.7502,210.756 69.7572,209.749 71.0002,209.749 C72.2422,209.749 73.2502,210.756 73.2502,212 C73.2502,213.242 72.2422,214.25 71.0002,214.25 C69.7572,214.25 68.7502,213.242 68.7502,212 M57.4992,212 C57.4992,209.516 59.5132,207.499 61.9992,207.499 C64.4852,207.499 66.4992,209.516 66.4992,212 C66.4992,214.485 64.4852,216.5 61.9992,216.5 C59.5132,216.5 57.4992,214.485 57.4992,212 M66.4992,203.001 C66.4992,200.515 68.5142,198.5 71.0002,198.5 C73.4862,198.5 75.5002,200.515 75.5002,203.001 C75.5002,205.484 73.4862,207.499 71.0002,207.499 C68.5142,207.499 66.4992,205.484 66.4992,203.001 M76.6252,212 C76.6252,209.516 78.6402,207.499 81.1252,207.499 C83.6122,207.499 85.6262,209.516 85.6262,212 C85.6262,214.485 83.6122,216.5 81.1252,216.5 C78.6402,216.5 76.6252,214.485 76.6252,212 M66.4992,221 C66.4992,218.514 68.5142,216.5 71.0002,216.5 C73.4862,216.5 75.5002,218.514 75.5002,221 C75.5002,223.486 73.4862,225.5 71.0002,225.5 C68.5142,225.5 66.4992,223.486 66.4992,221" fill="#B4D42A" id="movie"/><g id="slices" transform="translate(47.000000, 9.000000)"/></g></g></svg>